<svg viewBox="0 0 30 30" xmlns="http://www.w3.org/2000/svg" xmlns:xlink="http://www.w3.org/1999/xlink" width="30.000000" height="30.000000" fill="none" customFrame="#000000">
	<g id="Group 9">
		<path id="Vector" d="M22 1C25.866 1 29 4.13401 29 8L29 22C29 25.866 25.866 29 22 29L8 29C4.13401 29 1 25.866 1 22L1 8C1 4.13401 4.13401 1 8 1L22 1Z" stroke="rgb(19,106,246)" stroke-linecap="round" stroke-linejoin="round" stroke-width="2" />
		<path id="Vector" d="M20.1771 17.688C19.612 18.777 18.7179 19.6602 17.622 20.2118C16.526 20.7635 15.284 20.9555 14.0726 20.7605C12.8612 20.5656 11.7422 19.9937 10.8746 19.1261C10.007 18.2585 9.43503 17.1394 9.24011 15.928C9.04518 14.7167 9.23719 13.4747 9.78882 12.3787C10.3404 11.2827 11.2236 10.3886 12.3127 9.82351C13.4018 9.2584 14.6413 9.0511 15.855 9.23107C17.093 9.41465 18.2392 9.99154 19.1241 10.8765C20.0091 11.7615 20.586 12.9076 20.7696 14.1456C20.9496 15.3593 20.7422 16.5989 20.1771 17.688Z" fill-rule="nonzero" stroke="rgb(19,106,246)" stroke-linecap="round" stroke-linejoin="round" stroke-width="2" />
		<circle id="Ellipse 38" cx="23.166666" cy="6.83463526" r="1.16666663" fill="rgb(12,94,229)" />
	</g>
</svg>
