<svg width="29" height="29" viewBox="0 0 29 29" fill="none" xmlns="http://www.w3.org/2000/svg">
<path d="M4.28085 24.447H9.62177V10.2905H4.28085V24.447ZM8.30627 11.5952V23.1423H5.59635V11.5952H8.30627Z" fill="#136AF6" stroke="#136AF6" stroke-width="0.3"/>
<path d="M28.404 3.40067C28.3229 2.55628 27.9165 1.75467 27.2595 1.14356C26.6049 0.534526 25.774 0.181998 24.92 0.150424L24.9079 0.149902L3.61001 0.151468L3.56292 0.153034C2.70995 0.213832 1.90066 0.569491 1.28395 1.15452C0.676982 1.73015 0.276545 2.508 0.156571 3.34457L0.149994 3.39024V24.9753L0.186828 25.08C0.203403 25.1272 0.217084 25.1966 0.231818 25.2699C0.247604 25.35 0.265758 25.4408 0.293383 25.5382C0.616469 26.6667 1.51601 27.5951 2.64102 27.9615C2.78309 28.0077 2.91491 28.0372 3.04304 28.0659C3.12802 28.0849 3.20852 28.1029 3.28009 28.1235L3.37059 28.1499H25.16L25.2507 28.1235C25.311 28.1061 25.3849 28.0917 25.4636 28.0766C25.5599 28.0581 25.6593 28.0387 25.7685 28.0085C26.9422 27.6836 27.9188 26.7226 28.2566 25.5603C28.2861 25.4588 28.3058 25.3628 28.3232 25.2783C28.3393 25.2003 28.3543 25.1267 28.3729 25.0716L28.4069 24.9709V3.44399L28.404 3.40067ZM3.55371 26.8452C3.47689 26.8254 3.40348 26.8089 3.33218 26.793C3.2301 26.7703 3.1338 26.7487 3.05145 26.7218C2.34687 26.4924 1.76095 25.8878 1.55889 25.1817C1.546 25.1363 1.53442 25.0792 1.52258 25.0186C1.50759 24.943 1.49075 24.8582 1.46549 24.7671V3.48522C1.64414 2.37675 2.53289 1.54488 3.63501 1.45616L24.8827 1.45459C25.9845 1.5013 26.9719 2.41459 27.0914 3.49566V24.7692C27.0669 24.8587 27.0495 24.9427 27.034 25.0179C27.0203 25.0844 27.0074 25.1473 26.9925 25.1989C26.7814 25.9249 26.1474 26.5488 25.4149 26.7515C25.3565 26.7677 25.2865 26.7813 25.2123 26.7956C25.1376 26.81 25.0608 26.8249 24.979 26.8449H3.55371V26.8452Z" fill="#136AF6" stroke="#136AF6" stroke-width="0.3"/>
<path d="M23.6984 12.0301C23.0104 10.9916 22.0027 10.3215 20.7035 10.0384C19.7106 9.82204 18.7053 9.84239 17.7963 10.0976C17.1482 10.2795 16.5602 10.5715 16.0419 10.9686V10.2922H10.8589V24.4487H16.0419L16.0406 16.6907C16.0811 16.1897 16.2137 15.7618 16.4245 15.4518C16.6447 15.128 16.9614 14.9263 17.3658 14.8524C17.9486 14.7459 18.404 14.8206 18.7197 15.0745C18.9952 15.2963 19.3293 15.7806 19.3578 16.8306L19.3567 24.4489H24.6713L24.6726 15.4145L24.6721 15.3884C24.6187 14.055 24.2909 12.9254 23.6981 12.0306L23.6984 12.0301ZM14.7272 16.6171L14.7254 16.6411L14.7264 23.1437H12.1744V11.5967H14.7264V13.5459C14.7264 13.6972 14.8238 13.8311 14.9687 13.8788C15.1137 13.9266 15.2723 13.8773 15.3639 13.7559L16.3163 12.4917C17.3095 11.39 18.8052 10.9602 20.4215 11.3128C21.3736 11.5202 22.1064 12.0027 22.5991 12.7466C23.0569 13.4379 23.3121 14.3397 23.3574 15.4273L23.3563 23.144H20.6727L20.6738 16.822V16.8053C20.6422 15.5768 20.2533 14.6277 19.549 14.061C18.921 13.5555 18.1065 13.3901 17.1277 13.5691C16.4384 13.6951 15.8551 14.0435 15.4407 14.5763C15.0292 15.1055 14.7893 15.792 14.7275 16.6171H14.7272Z" fill="#136AF6" stroke="#136AF6" stroke-width="0.3"/>
<path d="M6.70005 3.86228C5.56478 3.94813 4.58184 4.65528 4.13431 5.70764C3.68678 6.76027 3.86305 7.95275 4.59421 8.81985C5.17592 9.50951 6.02231 9.9051 6.91632 9.9051C7.08734 9.9051 7.26072 9.89048 7.43121 9.86204C8.50623 9.68199 9.37893 8.96937 9.76569 7.95562C10.1372 6.98232 9.98091 5.90047 9.34762 5.0613C8.72171 4.23203 7.73219 3.78374 6.70032 3.86176L6.70005 3.86228ZM8.53491 7.49402C8.31549 8.06939 7.82086 8.47359 7.21178 8.57561C6.6035 8.67738 6.00205 8.45584 5.60319 7.98276C5.18329 7.48489 5.08726 6.82367 5.34641 6.21438C5.60504 5.6064 6.14702 5.21368 6.79688 5.16332H6.80003C7.38069 5.11896 7.93925 5.37338 8.29391 5.84333C8.65594 6.32319 8.74618 6.94005 8.53491 7.49376V7.49402Z" fill="#136AF6" stroke="#136AF6" stroke-width="0.3"/>
</svg>
